<svg width="923" height="748" viewBox="0 0 923 748" fill="none" xmlns="http://www.w3.org/2000/svg">
<g id="undraw_counting_stars_rrnl (1) 1" clip-path="url(#clip0)">
<path id="universe" d="M282.004 237.246C279.324 338.002 413.633 440.856 581.281 440.856C748.929 440.856 1015.91 242.219 889.111 237.246C644.786 227.662 561.059 126.475 585.557 54.7457C629.432 -73.716 287.281 38.8562 282.004 237.246Z" fill="#212122"/>
<g id="stars">
<g id="stargroup5">
<path id="Vector" d="M514.387 168.637L512.377 167.363L513.657 165.362L513.108 165.016L511.829 167.017L509.818 165.743L509.469 166.288L511.48 167.562L510.2 169.564L510.749 169.911L512.028 167.91L514.038 169.183L514.387 168.637Z" fill="#F9DC8C"/>
<path id="Vector_2" d="M421.919 295.921L419.908 294.647L421.188 292.646L420.639 292.299L419.36 294.301L417.349 293.027L417 293.572L419.011 294.846L417.731 296.847L418.28 297.195L419.559 295.194L421.569 296.467L421.919 295.921Z" fill="#F9DC8C"/>
<path id="Vector_3" d="M525.919 252.622L523.908 251.348L525.188 249.347L524.639 249L523.36 251.001L521.349 249.727L521 250.273L523.011 251.547L521.731 253.548L522.28 253.896L523.559 251.894L525.569 253.167L525.919 252.622Z" fill="#F9DC8C"/>
<path id="Vector_4" d="M561.606 209.25L558.79 207.468L560.582 204.666L559.814 204.18L558.023 206.981L555.208 205.198L554.72 205.963L557.535 207.745L555.744 210.547L556.511 211.034L558.302 208.231L561.117 210.014L561.606 209.25Z" fill="white"/>
<path id="star10" d="M443.886 135.07L441.071 133.288L442.862 130.486L442.095 130L440.303 132.801L437.489 131.018L437 131.783L439.815 133.565L438.024 136.367L438.791 136.854L440.583 134.052L443.397 135.834L443.886 135.07Z" fill="white"/>
<path id="Vector_5" d="M460.283 246.281C461.913 246.281 463.234 244.966 463.234 243.344C463.234 241.721 461.913 240.406 460.283 240.406C458.653 240.406 457.332 241.721 457.332 243.344C457.332 244.966 458.653 246.281 460.283 246.281Z" fill="#F9DC8C"/>
<path id="Vector_6" d="M545.866 138.579C547.496 138.579 548.817 137.264 548.817 135.642C548.817 134.02 547.496 132.705 545.866 132.705C544.236 132.705 542.915 134.02 542.915 135.642C542.915 137.264 544.236 138.579 545.866 138.579Z" fill="#F9DC8C"/>
<path id="Vector_7" d="M518.322 317.756C519.952 317.756 521.273 316.441 521.273 314.819C521.273 313.196 519.952 311.881 518.322 311.881C516.692 311.881 515.371 313.196 515.371 314.819C515.371 316.441 516.692 317.756 518.322 317.756Z" fill="#F9DC8C"/>
<path id="star11" d="M718.016 341.254C719.102 341.254 719.983 340.378 719.983 339.296C719.983 338.215 719.102 337.338 718.016 337.338C716.929 337.338 716.048 338.215 716.048 339.296C716.048 340.378 716.929 341.254 718.016 341.254Z" fill="#6599FF"/>
<path id="Vector_8" d="M539.964 75.9164C541.051 75.9164 541.931 75.0397 541.931 73.9582C541.931 72.8767 541.051 72 539.964 72C538.877 72 537.997 72.8767 537.997 73.9582C537.997 75.0397 538.877 75.9164 539.964 75.9164Z" fill="#FF65F9"/>
<path id="Vector_9" d="M459.3 166.973C460.386 166.973 461.267 166.097 461.267 165.015C461.267 163.934 460.386 163.057 459.3 163.057C458.213 163.057 457.332 163.934 457.332 165.015C457.332 166.097 458.213 166.973 459.3 166.973Z" fill="#F9DC8C"/>
<path id="Vector_10" d="M778.022 278.592C779.652 278.592 780.973 277.276 780.973 275.654C780.973 274.032 779.652 272.717 778.022 272.717C776.392 272.717 775.071 274.032 775.071 275.654C775.071 277.276 776.392 278.592 778.022 278.592Z" fill="#F9DC8C"/>
</g>
<g id="stargroup9">
<path id="Vector_11" d="M520.387 236.637L518.377 235.363L519.657 233.362L519.108 233.016L517.829 235.017L515.818 233.743L515.469 234.288L517.48 235.562L516.2 237.564L516.749 237.911L518.028 235.91L520.038 237.183L520.387 236.637Z" fill="#F9DC8C"/>
<path id="Vector_12" d="M427.919 363.921L425.908 362.647L427.188 360.646L426.639 360.299L425.36 362.301L423.349 361.027L423 361.572L425.011 362.846L423.731 364.847L424.28 365.195L425.559 363.194L427.569 364.467L427.919 363.921Z" fill="#F9DC8C"/>
<path id="Vector_13" d="M531.919 320.622L529.908 319.348L531.188 317.347L530.639 317L529.36 319.001L527.349 317.727L527 318.273L529.011 319.547L527.731 321.548L528.28 321.896L529.559 319.894L531.569 321.167L531.919 320.622Z" fill="#F9DC8C"/>
<path id="Vector_14" d="M567.606 277.25L564.79 275.468L566.582 272.666L565.814 272.18L564.023 274.981L561.208 273.198L560.72 273.963L563.535 275.745L561.744 278.547L562.511 279.034L564.302 276.231L567.117 278.014L567.606 277.25Z" fill="white"/>
<path id="star10_2" d="M449.886 203.07L447.071 201.288L448.862 198.486L448.095 198L446.303 200.801L443.489 199.018L443 199.783L445.815 201.565L444.024 204.367L444.791 204.854L446.583 202.052L449.397 203.834L449.886 203.07Z" fill="white"/>
<path id="Vector_15" d="M466.283 314.281C467.913 314.281 469.234 312.966 469.234 311.344C469.234 309.721 467.913 308.406 466.283 308.406C464.653 308.406 463.332 309.721 463.332 311.344C463.332 312.966 464.653 314.281 466.283 314.281Z" fill="#F9DC8C"/>
<path id="Vector_16" d="M551.866 206.579C553.496 206.579 554.817 205.264 554.817 203.642C554.817 202.02 553.496 200.705 551.866 200.705C550.236 200.705 548.915 202.02 548.915 203.642C548.915 205.264 550.236 206.579 551.866 206.579Z" fill="#F9DC8C"/>
<path id="Vector_17" d="M524.322 385.756C525.952 385.756 527.273 384.441 527.273 382.819C527.273 381.196 525.952 379.881 524.322 379.881C522.692 379.881 521.371 381.196 521.371 382.819C521.371 384.441 522.692 385.756 524.322 385.756Z" fill="#F9DC8C"/>
<path id="star11_2" d="M724.016 409.254C725.102 409.254 725.983 408.378 725.983 407.296C725.983 406.215 725.102 405.338 724.016 405.338C722.929 405.338 722.048 406.215 722.048 407.296C722.048 408.378 722.929 409.254 724.016 409.254Z" fill="#6599FF"/>
<path id="Vector_18" d="M545.964 143.916C547.051 143.916 547.931 143.04 547.931 141.958C547.931 140.877 547.051 140 545.964 140C544.877 140 543.997 140.877 543.997 141.958C543.997 143.04 544.877 143.916 545.964 143.916Z" fill="#FF65F9"/>
<path id="Vector_19" d="M465.3 234.973C466.386 234.973 467.267 234.097 467.267 233.015C467.267 231.934 466.386 231.057 465.3 231.057C464.213 231.057 463.332 231.934 463.332 233.015C463.332 234.097 464.213 234.973 465.3 234.973Z" fill="#F9DC8C"/>
<path id="Vector_20" d="M784.022 346.592C785.652 346.592 786.973 345.276 786.973 343.654C786.973 342.032 785.652 340.717 784.022 340.717C782.392 340.717 781.071 342.032 781.071 343.654C781.071 345.276 782.392 346.592 784.022 346.592Z" fill="#F9DC8C"/>
</g>
<g id="stargroup3">
<path id="Vector_21" d="M729 351.304L727.312 350.194L728.386 348.449L727.926 348.147L726.852 349.891L725.165 348.781L724.872 349.256L726.559 350.367L725.485 352.112L725.946 352.415L727.019 350.67L728.707 351.78L729 351.304Z" fill="#F9DC8C"/>
<path id="Vector_22" d="M677.807 417.889L676.12 416.779L677.194 415.034L676.733 414.732L675.66 416.477L673.972 415.366L673.679 415.841L675.367 416.952L674.292 418.697L674.753 419L675.826 417.255L677.514 418.365L677.807 417.889Z" fill="#F9DC8C"/>
<path id="star8" d="M536.615 386.304L534.927 385.194L536.001 383.449L535.54 383.146L534.467 384.891L532.779 383.781L532.486 384.256L534.174 385.367L533.1 387.112L533.56 387.415L534.634 385.67L536.322 386.78L536.615 386.304Z" fill="#F9DC8C"/>
<path id="star9" d="M461.477 292.658C462.845 292.658 463.954 291.512 463.954 290.098C463.954 288.683 462.845 287.537 461.477 287.537C460.109 287.537 459 288.683 459 290.098C459 291.512 460.109 292.658 461.477 292.658Z" fill="#F9DC8C"/>
<path id="Vector_23" d="M727.886 297.07L725.071 295.288L726.862 292.486L726.095 292L724.303 294.801L721.489 293.018L721 293.783L723.815 295.565L722.024 298.367L722.791 298.854L724.583 296.052L727.397 297.834L727.886 297.07Z" fill="white"/>
<path id="Vector_24" d="M578.886 422.07L576.071 420.288L577.862 417.486L577.095 417L575.303 419.801L572.489 418.018L572 418.783L574.815 420.565L573.024 423.367L573.791 423.854L575.583 421.052L578.397 422.834L578.886 422.07Z" fill="white"/>
<path id="star7" d="M615.886 176.07L613.071 174.288L614.862 171.486L614.095 171L612.303 173.801L609.489 172.018L609 172.783L611.815 174.565L610.024 177.367L610.791 177.854L612.583 175.052L615.397 176.834L615.886 176.07Z" fill="white"/>
<path id="Vector_25" d="M507.886 311.07L505.071 309.288L506.862 306.486L506.095 306L504.303 308.801L501.489 307.018L501 307.783L503.815 309.565L502.024 312.367L502.791 312.854L504.583 310.052L507.397 311.834L507.886 311.07Z" fill="white"/>
</g>
<g id="stargroup1">
<path id="Vector_26" d="M876 426.699L873.956 425.398L875.257 423.354L874.699 423L873.399 425.044L871.355 423.743L871 424.3L873.044 425.601L871.743 427.645L872.301 428L873.601 425.956L875.645 427.256L876 426.699Z" fill="#F9DC8C"/>
<path id="Vector_27" d="M814 504.699L811.956 503.398L813.257 501.354L812.699 501L811.399 503.044L809.355 501.743L809 502.3L811.044 503.601L809.743 505.645L810.301 506L811.601 503.956L813.645 505.256L814 504.699Z" fill="#F9DC8C"/>
<path id="Vector_28" d="M643 467.699L640.956 466.398L642.257 464.354L641.699 464L640.399 466.044L638.355 464.743L638 465.3L640.044 466.601L638.743 468.645L639.301 469L640.601 466.956L642.645 468.256L643 467.699Z" fill="#F9DC8C"/>
<path id="star4" d="M601 297.699L598.956 296.398L600.257 294.354L599.699 294L598.399 296.044L596.355 294.743L596 295.3L598.044 296.601L596.743 298.645L597.301 299L598.601 296.956L600.645 298.256L601 297.699Z" fill="#F9DC8C"/>
<path id="star6" d="M552 358C553.657 358 555 356.657 555 355C555 353.343 553.657 352 552 352C550.343 352 549 353.343 549 355C549 356.657 550.343 358 552 358Z" fill="#F9DC8C"/>
<path id="star5" d="M726 367C727.105 367 728 366.105 728 365C728 363.895 727.105 363 726 363C724.895 363 724 363.895 724 365C724 366.105 724.895 367 726 367Z" fill="#F9DC8C"/>
<path id="star4_2" d="M625 346C626.105 346 627 345.105 627 344C627 342.895 626.105 342 625 342C623.895 342 623 342.895 623 344C623 345.105 623.895 346 625 346Z" fill="#75B3FD"/>
<path id="star3" d="M693 210C694.105 210 695 209.105 695 208C695 206.895 694.105 206 693 206C691.895 206 691 206.895 691 208C691 209.105 691.895 210 693 210Z" fill="white"/>
<path id="star1" d="M863 364C864.657 364 866 362.657 866 361C866 359.343 864.657 358 863 358C861.343 358 860 359.343 860 361C860 362.657 861.343 364 863 364Z" fill="white"/>
</g>
<g id="stargroup4">
<path id="Vector_29" d="M672 263.699L669.956 262.398L671.257 260.354L670.699 260L669.399 262.044L667.355 260.743L667 261.3L669.044 262.601L667.743 264.645L668.301 265L669.601 262.956L671.645 264.256L672 263.699Z" fill="#F9DC8C"/>
<path id="Vector_30" d="M610 341.699L607.956 340.398L609.257 338.354L608.699 338L607.399 340.044L605.355 338.743L605 339.3L607.044 340.601L605.743 342.645L606.301 343L607.601 340.956L609.645 342.256L610 341.699Z" fill="#F9DC8C"/>
<path id="Vector_31" d="M439 304.699L436.956 303.398L438.257 301.354L437.699 301L436.399 303.044L434.355 301.743L434 302.3L436.044 303.601L434.743 305.645L435.301 306L436.601 303.956L438.645 305.256L439 304.699Z" fill="#F9DC8C"/>
<path id="star4_3" d="M397 134.699L394.956 133.398L396.257 131.354L395.699 131L394.399 133.044L392.355 131.743L392 132.3L394.044 133.601L392.743 135.645L393.301 136L394.601 133.956L396.645 135.256L397 134.699Z" fill="#F9DC8C"/>
<path id="star6_2" d="M348 195C349.657 195 351 193.657 351 192C351 190.343 349.657 189 348 189C346.343 189 345 190.343 345 192C345 193.657 346.343 195 348 195Z" fill="#F9DC8C"/>
<path id="star5_2" d="M522 204C523.105 204 524 203.105 524 202C524 200.895 523.105 200 522 200C520.895 200 520 200.895 520 202C520 203.105 520.895 204 522 204Z" fill="#F9DC8C"/>
<path id="star4_4" d="M421 183C422.105 183 423 182.105 423 181C423 179.895 422.105 179 421 179C419.895 179 419 179.895 419 181C419 182.105 419.895 183 421 183Z" fill="#75B3FD"/>
<path id="star3_2" d="M489 47C490.105 47 491 46.1046 491 45C491 43.8954 490.105 43 489 43C487.895 43 487 43.8954 487 45C487 46.1046 487.895 47 489 47Z" fill="white"/>
<path id="star2" d="M589 239C590.657 239 592 237.657 592 236C592 234.343 590.657 233 589 233C587.343 233 586 234.343 586 236C586 237.657 587.343 239 589 239Z" fill="#F9DC8C"/>
<path id="star1_2" d="M659 201C660.657 201 662 199.657 662 198C662 196.343 660.657 195 659 195C657.343 195 656 196.343 656 198C656 199.657 657.343 201 659 201Z" fill="white"/>
</g>
</g>
<g id="head">
<path id="Vector_32" d="M152.741 368.574C167.404 368.574 179.291 358.779 179.291 346.696C179.291 334.613 167.404 324.818 152.741 324.818C138.079 324.818 126.192 334.613 126.192 346.696C126.192 358.779 138.079 368.574 152.741 368.574Z" fill="#9F616A"/>
<path id="Vector_33" d="M163.558 350.347C163.22 352.192 159.762 352.959 154.687 352.599L154.679 352.598C152.53 352.433 150.399 352.132 148.305 351.7C145.138 351.058 143.353 353.38 142.202 356.594C140.313 361.897 140.17 369.643 138.508 370.653C126.904 375.938 92.6188 340.503 110.188 331.329C116.445 328.061 137.509 315.861 152.062 318.326C166.615 320.791 160.723 335.676 160.723 335.676C160.723 335.676 161.257 337.63 161.863 340.139C162.724 343.301 163.307 346.51 163.606 349.741C163.606 349.944 163.59 350.146 163.558 350.347Z" fill="#2F2E41"/>
</g>
<path id="Vector_34" d="M92.4291 719C92.4291 719 85.1741 743.811 91.7696 744.889C98.365 745.968 130.683 745.62 138.597 746.699C146.511 747.778 163 745.968 163 741.114C163 736.26 145.852 733.024 145.852 733.024C145.852 733.024 121.449 722.236 120.789 721.697C120.13 721.157 92.4291 719 92.4291 719Z" fill="#2F2E41"/>
<path id="Vector_35" d="M100.082 542.218C100.082 542.218 102.434 564.104 102.434 566.035C102.434 567.966 88.3179 669.671 91.4549 690.269C94.5919 710.868 91.1645 717.446 91.1645 721.308C91.1645 725.171 116.551 723.742 116.551 723.742L144 581.484L129.883 539L100.082 542.218Z" fill="#2F2E41"/>
<path id="Vector_36" d="M101.885 724.674C101.885 724.674 95.3933 743.505 101.885 744.551C108.377 745.597 140.189 743.353 147.979 744.399C155.77 745.445 172 745.597 172 740.889C172 736.182 155.121 733.043 155.121 733.043C155.121 733.043 131.1 722.582 130.451 722.059C129.801 721.536 101.885 724.674 101.885 724.674Z" fill="#2F2E41"/>
<path id="Vector_37" d="M93.7099 517C93.7099 517 84.4093 535.625 95.26 545.258C106.111 554.892 118.512 574.158 118.512 575.443C118.512 576.727 96.8102 704.531 99.9104 712.88C103.011 721.229 102.235 726.367 101.46 727.651C100.685 728.935 109.211 736 118.512 736C127.812 736 141.763 730.22 143.313 725.082C144.863 719.944 140.988 675.631 141.763 667.282C142.538 658.933 173.54 525.349 169.665 522.138C165.79 518.927 93.7099 517 93.7099 517Z" fill="#2F2E41"/>
<path id="Vector_38" d="M136 357.921C136 357.921 141.476 381.194 137.565 383.71C133.653 386.226 167.294 390 167.294 390C167.294 390 171.205 359.179 171.988 356.034C172.77 352.889 136 357.921 136 357.921Z" fill="#9F616A"/>
<path id="Vector_39" d="M172.252 388.375C172.252 388.375 177.294 365.719 138.992 372.149C138.992 372.149 104.022 395.736 105.585 417.598C107.148 439.46 93.3038 502.829 94.8672 507.33C96.4305 511.831 85.4872 517.618 90.1772 519.547C94.8672 521.476 179.287 533.05 181.632 519.547C183.977 506.044 180.85 471.965 182.414 465.535C183.977 459.105 182.414 405.093 177.724 398.663C173.034 392.233 172.252 388.375 172.252 388.375Z" fill="#FDDC69"/>
<g id="arm">
<path id="Vector_40" d="M155.106 535.828C155.106 535.828 143.393 572.506 158.23 572.506C173.066 572.506 172.285 534.541 172.285 534.541L155.106 535.828Z" fill="#9F616A"/>
<path id="Vector_41" d="M164.477 385.253C164.477 385.253 137.927 383.967 135.585 416.141C133.242 448.315 134.023 478.558 134.023 479.202C134.023 479.845 144.955 540.976 155.106 540.976C165.258 540.976 173.066 539.689 175.409 536.471C177.751 533.254 169.162 486.923 169.162 486.923C169.162 486.923 165.258 438.019 171.504 422.575C177.751 407.132 178.532 387.184 164.477 385.253Z" fill="#FFE37E"/>
<path id="Vector_42" opacity="0.1" d="M135.187 434.692L127.485 503.446L153.157 551.045L136.47 502.388L135.187 433.634" fill="black"/>
<path id="Vector_43" opacity="0.1" d="M172.411 442.096L174.372 523.151L167.276 479.118L172.411 442.096Z" fill="black"/>
</g>
</g>
<defs>
<clipPath id="clip0">
<rect width="922.185" height="747.357" fill="white"/>
</clipPath>
</defs>
</svg>
