<svg width="923" height="748" viewBox="0 0 923 748" fill="none" xmlns="http://www.w3.org/2000/svg">
<g id="undraw_counting_stars_rrnl (1) 1" clip-path="url(#clip0)">
<path id="universe" d="M282.004 237.246C279.324 338.002 413.633 440.856 581.281 440.856C748.929 440.856 1015.91 242.219 889.111 237.246C644.786 227.662 561.059 126.475 585.557 54.7457C629.432 -73.716 287.281 38.8562 282.004 237.246Z" fill="#3F3D56"/>
<g id="stars">
<g id="stargroup2">
<path id="Vector" d="M514.387 168.637L512.377 167.363L513.657 165.362L513.108 165.016L511.829 167.017L509.818 165.743L509.469 166.288L511.48 167.562L510.2 169.564L510.749 169.911L512.028 167.91L514.038 169.183L514.387 168.637Z" fill="#F9DC8C"/>
<path id="Vector_2" d="M421.919 295.921L419.908 294.647L421.188 292.646L420.639 292.299L419.36 294.301L417.349 293.027L417 293.572L419.011 294.846L417.731 296.847L418.28 297.195L419.559 295.194L421.569 296.467L421.919 295.921Z" fill="#F9DC8C"/>
<path id="Vector_3" d="M525.919 252.622L523.908 251.348L525.188 249.347L524.639 249L523.36 251.001L521.349 249.727L521 250.273L523.011 251.547L521.731 253.548L522.28 253.896L523.559 251.894L525.569 253.167L525.919 252.622Z" fill="#F9DC8C"/>
<path id="Vector_4" d="M561.606 209.25L558.79 207.468L560.582 204.666L559.814 204.18L558.023 206.981L555.208 205.198L554.72 205.963L557.535 207.745L555.744 210.547L556.511 211.034L558.302 208.231L561.117 210.014L561.606 209.25Z" fill="white"/>
<path id="Vector_5" d="M443.886 135.07L441.071 133.288L442.862 130.486L442.095 130L440.303 132.801L437.489 131.018L437 131.783L439.815 133.565L438.024 136.367L438.791 136.854L440.583 134.052L443.397 135.834L443.886 135.07Z" fill="white"/>
<path id="Vector_6" d="M460.283 246.281C461.913 246.281 463.234 244.966 463.234 243.344C463.234 241.721 461.913 240.406 460.283 240.406C458.653 240.406 457.332 241.721 457.332 243.344C457.332 244.966 458.653 246.281 460.283 246.281Z" fill="#F9DC8C"/>
<path id="Vector_7" d="M545.866 138.579C547.496 138.579 548.817 137.264 548.817 135.642C548.817 134.02 547.496 132.705 545.866 132.705C544.236 132.705 542.915 134.02 542.915 135.642C542.915 137.264 544.236 138.579 545.866 138.579Z" fill="#F9DC8C"/>
<path id="Vector_8" d="M518.322 317.756C519.952 317.756 521.273 316.441 521.273 314.819C521.273 313.196 519.952 311.881 518.322 311.881C516.692 311.881 515.371 313.196 515.371 314.819C515.371 316.441 516.692 317.756 518.322 317.756Z" fill="#F9DC8C"/>
<path id="Vector_9" d="M718.016 341.254C719.102 341.254 719.983 340.378 719.983 339.296C719.983 338.215 719.102 337.338 718.016 337.338C716.929 337.338 716.048 338.215 716.048 339.296C716.048 340.378 716.929 341.254 718.016 341.254Z" fill="#6599FF"/>
<path id="Vector_10" d="M539.964 75.9164C541.051 75.9164 541.931 75.0397 541.931 73.9582C541.931 72.8767 541.051 72 539.964 72C538.877 72 537.997 72.8767 537.997 73.9582C537.997 75.0397 538.877 75.9164 539.964 75.9164Z" fill="#FF65F9"/>
<path id="Vector_11" d="M459.3 166.973C460.386 166.973 461.267 166.097 461.267 165.015C461.267 163.934 460.386 163.057 459.3 163.057C458.213 163.057 457.332 163.934 457.332 165.015C457.332 166.097 458.213 166.973 459.3 166.973Z" fill="#F9DC8C"/>
<path id="Vector_12" d="M778.022 278.592C779.652 278.592 780.973 277.276 780.973 275.654C780.973 274.032 779.652 272.717 778.022 272.717C776.392 272.717 775.071 274.032 775.071 275.654C775.071 277.276 776.392 278.592 778.022 278.592Z" fill="#F9DC8C"/>
</g>
<g id="stargroup3">
<path id="Vector_13" d="M604 262.304L602.312 261.194L603.386 259.449L602.926 259.147L601.852 260.891L600.165 259.781L599.872 260.256L601.559 261.367L600.485 263.112L600.946 263.415L602.019 261.67L603.707 262.78L604 262.304Z" fill="#F9DC8C"/>
<path id="Vector_14" d="M552.807 328.889L551.12 327.779L552.194 326.034L551.733 325.732L550.66 327.477L548.972 326.366L548.679 326.841L550.367 327.952L549.292 329.697L549.753 330L550.826 328.255L552.514 329.365L552.807 328.889Z" fill="#F9DC8C"/>
<path id="Vector_15" d="M411.615 297.304L409.927 296.194L411.001 294.449L410.54 294.146L409.467 295.891L407.779 294.781L407.486 295.256L409.174 296.367L408.1 298.112L408.56 298.415L409.634 296.67L411.322 297.78L411.615 297.304Z" fill="#F9DC8C"/>
<path id="star6" d="M336.477 203.658C337.845 203.658 338.954 202.512 338.954 201.098C338.954 199.683 337.845 198.537 336.477 198.537C335.109 198.537 334 199.683 334 201.098C334 202.512 335.109 203.658 336.477 203.658Z" fill="#F9DC8C"/>
<path id="star4" d="M396.752 193.415C397.664 193.415 398.404 192.65 398.404 191.707C398.404 190.764 397.664 190 396.752 190C395.84 190 395.101 190.764 395.101 191.707C395.101 192.65 395.84 193.415 396.752 193.415Z" fill="#75B3FD"/>
<path id="star1" d="M648 212C649.657 212 651 210.657 651 209C651 207.343 649.657 206 648 206C646.343 206 645 207.343 645 209C645 210.657 646.343 212 648 212Z" fill="white"/>
<path id="Vector_16" d="M602.886 208.07L600.071 206.288L601.862 203.486L601.095 203L599.303 205.801L596.489 204.018L596 204.783L598.815 206.565L597.024 209.367L597.791 209.854L599.583 207.052L602.397 208.834L602.886 208.07Z" fill="white"/>
<path id="Vector_17" d="M453.886 333.07L451.071 331.288L452.862 328.486L452.095 328L450.303 330.801L447.489 329.018L447 329.783L449.815 331.565L448.024 334.367L448.791 334.854L450.583 332.052L453.397 333.834L453.886 333.07Z" fill="white"/>
<path id="Vector_18" d="M490.886 87.0698L488.071 85.2878L489.862 82.4856L489.095 82L487.303 84.8012L484.489 83.0183L484 83.783L486.815 85.5649L485.024 88.3671L485.791 88.8537L487.583 86.0515L490.397 87.8345L490.886 87.0698Z" fill="white"/>
<path id="Vector_19" d="M382.886 222.07L380.071 220.288L381.862 217.486L381.095 217L379.303 219.801L376.489 218.018L376 218.783L378.815 220.565L377.024 223.367L377.791 223.854L379.583 221.052L382.397 222.834L382.886 222.07Z" fill="white"/>
</g>
<g id="stargroup1">
<path id="Vector_20" d="M697 334.699L694.956 333.398L696.257 331.354L695.699 331L694.399 333.044L692.355 331.743L692 332.3L694.044 333.601L692.743 335.645L693.301 336L694.601 333.956L696.645 335.256L697 334.699Z" fill="#F9DC8C"/>
<path id="Vector_21" d="M635 412.699L632.956 411.398L634.257 409.354L633.699 409L632.399 411.044L630.355 409.743L630 410.3L632.044 411.601L630.743 413.645L631.301 414L632.601 411.956L634.645 413.256L635 412.699Z" fill="#F9DC8C"/>
<path id="Vector_22" d="M464 375.699L461.956 374.398L463.257 372.354L462.699 372L461.399 374.044L459.355 372.743L459 373.3L461.044 374.601L459.743 376.645L460.301 377L461.601 374.956L463.645 376.256L464 375.699Z" fill="#F9DC8C"/>
<path id="star4_2" d="M422 205.699L419.956 204.398L421.257 202.354L420.699 202L419.399 204.044L417.355 202.743L417 203.3L419.044 204.601L417.743 206.645L418.301 207L419.601 204.956L421.645 206.256L422 205.699Z" fill="#F9DC8C"/>
<path id="star6_2" d="M373 266C374.657 266 376 264.657 376 263C376 261.343 374.657 260 373 260C371.343 260 370 261.343 370 263C370 264.657 371.343 266 373 266Z" fill="#F9DC8C"/>
<path id="star5" d="M547 275C548.105 275 549 274.105 549 273C549 271.895 548.105 271 547 271C545.895 271 545 271.895 545 273C545 274.105 545.895 275 547 275Z" fill="#F9DC8C"/>
<path id="star4_3" d="M446 254C447.105 254 448 253.105 448 252C448 250.895 447.105 250 446 250C444.895 250 444 250.895 444 252C444 253.105 444.895 254 446 254Z" fill="#75B3FD"/>
<path id="star3" d="M514 118C515.105 118 516 117.105 516 116C516 114.895 515.105 114 514 114C512.895 114 512 114.895 512 116C512 117.105 512.895 118 514 118Z" fill="white"/>
<path id="star2" d="M614 310C615.657 310 617 308.657 617 307C617 305.343 615.657 304 614 304C612.343 304 611 305.343 611 307C611 308.657 612.343 310 614 310Z" fill="#F9DC8C"/>
<path id="star1_2" d="M684 272C685.657 272 687 270.657 687 269C687 267.343 685.657 266 684 266C682.343 266 681 267.343 681 269C681 270.657 682.343 272 684 272Z" fill="white"/>
</g>
</g>
<g id="head">
<path id="Vector_23" d="M138.68 389.238C150.104 389.238 159.364 379.978 159.364 368.554C159.364 357.131 150.104 347.871 138.68 347.871C127.257 347.871 117.996 357.131 117.996 368.554C117.996 379.978 127.257 389.238 138.68 389.238Z" fill="#9F616A"/>
<path id="Vector_24" d="M147.107 372.006C146.843 373.751 144.15 374.475 140.196 374.136L140.19 374.135C138.515 373.978 136.855 373.694 135.224 373.285C132.756 372.678 131.366 374.873 130.469 377.912C128.997 382.926 128.886 390.249 127.591 391.204C118.551 396.2 91.8406 362.7 105.528 354.027C110.403 350.937 126.813 339.404 138.151 341.734C149.488 344.064 144.899 358.136 144.899 358.136C144.899 358.136 145.314 359.983 145.786 362.356C146.458 365.345 146.912 368.379 147.145 371.434C147.145 371.625 147.132 371.816 147.107 372.006Z" fill="#2F2E41"/>
</g>
<g id="body">
<path id="Vector_25" d="M91.9285 720.614C91.9285 720.614 86.3315 744.02 91.4197 745.037C96.5079 746.055 121.44 745.727 127.546 746.744C133.651 747.762 146.372 746.055 146.372 741.476C146.372 736.897 133.143 733.844 133.143 733.844C133.143 733.844 114.316 723.667 113.808 723.158C113.299 722.65 91.9285 720.614 91.9285 720.614Z" fill="#2F2E41"/>
<path id="Vector_26" d="M97.9211 553.492C97.9211 553.492 99.7461 574.175 99.7461 576C99.7461 577.825 88.7959 673.944 91.2292 693.411C93.6626 712.878 91.004 719.095 91.004 722.746C91.004 726.396 110.696 725.045 110.696 725.045L131.988 590.601L121.038 550.45L97.9211 553.492Z" fill="#2F2E41"/>
<path id="Vector_27" d="M99.0519 725.738C99.0519 725.738 93.9638 744.055 99.0519 745.073C104.14 746.09 129.072 743.907 135.178 744.925C141.284 745.942 154.004 746.09 154.004 741.511C154.004 736.932 140.775 733.879 140.775 733.879C140.775 733.879 121.949 723.703 121.44 723.194C120.931 722.685 99.0519 725.738 99.0519 725.738Z" fill="#2F2E41"/>
<path id="Vector_28" d="M92.446 529.158C92.446 529.158 85.1458 546.8 93.6627 555.925C102.179 565.05 111.913 583.301 111.913 584.517C111.913 585.734 94.8794 706.795 97.3128 714.703C99.7461 722.612 99.1377 727.478 98.5294 728.695C97.9211 729.912 104.613 736.604 111.913 736.604C119.213 736.604 130.163 731.129 131.38 726.262C132.597 721.395 129.555 679.419 130.163 671.511C130.772 663.602 155.106 537.066 152.064 534.025C149.022 530.983 92.446 529.158 92.446 529.158Z" fill="#2F2E41"/>
<path id="Vector_29" d="M125.905 378.896C125.905 378.896 130.163 401.405 127.122 403.839C124.08 406.272 150.239 409.922 150.239 409.922C150.239 409.922 153.281 380.113 153.889 377.071C154.497 374.03 125.905 378.896 125.905 378.896Z" fill="#9F616A"/>
<path id="Vector_30" d="M153.889 408.097C153.889 408.097 157.813 386.662 128.004 392.746C128.004 392.746 100.787 415.062 102.004 435.746C103.221 456.429 92.446 516.382 93.6627 520.641C94.8794 524.899 86.3626 530.374 90.0126 532.199C93.6627 534.025 159.364 544.975 161.189 532.199C163.014 519.424 160.581 487.182 161.797 481.098C163.014 475.015 161.797 423.914 158.147 417.831C154.497 411.747 153.889 408.097 153.889 408.097Z" fill="#F9DC8C"/>
<path id="Vector_31" d="M141.114 556.533C141.114 556.533 131.988 591.209 143.547 591.209C155.106 591.209 154.497 555.317 154.497 555.317L141.114 556.533Z" fill="#9F616A"/>
<path id="Vector_32" d="M148.414 414.18C148.414 414.18 127.73 412.964 125.905 443.381C124.08 473.798 124.688 502.391 124.688 502.999C124.688 503.607 133.205 561.4 141.114 561.4C149.022 561.4 155.106 560.183 156.931 557.142C158.756 554.1 152.064 510.299 152.064 510.299C152.064 510.299 149.022 464.065 153.889 449.464C158.756 434.864 159.364 416.005 148.414 414.18Z" fill="#F9DC8C"/>
<path id="Vector_33" opacity="0.1" d="M125.004 451.746L119.004 516.746L139.004 561.746L126.004 515.746L125.004 450.746" fill="black"/>
<path id="Vector_34" opacity="0.1" d="M154.004 458.746L155.532 535.375L150.004 493.746L154.004 458.746Z" fill="black"/>
</g>
<path id="ground" d="M257.738 747.357H0V745.251H258.12L257.738 747.357Z" fill="#3F3D56"/>
</g>
<defs>
<clipPath id="clip0">
<rect width="922.185" height="747.357" fill="white"/>
</clipPath>
</defs>
</svg>
